<?xml version="1.0" encoding="UTF-8" standalone="no"?>
<!-- Created with Inkscape (http://www.inkscape.org/) -->

<svg
   xmlns:dc="http://purl.org/dc/elements/1.1/"
   xmlns:cc="http://creativecommons.org/ns#"
   xmlns:rdf="http://www.w3.org/1999/02/22-rdf-syntax-ns#"
   xmlns:svg="http://www.w3.org/2000/svg"
   xmlns="http://www.w3.org/2000/svg"
   xmlns:sodipodi="http://sodipodi.sourceforge.net/DTD/sodipodi-0.dtd"
   xmlns:inkscape="http://www.inkscape.org/namespaces/inkscape"
   width="210mm"
   height="297mm"
   viewBox="0 0 210 297"
   version="1.1"
   id="svg8"
   inkscape:version="0.92.4 (5da689c313, 2019-01-14)"
   sodipodi:docname="sprout_sheep_dark.svg">
  <defs
     id="defs2" />
  <sodipodi:namedview
     id="base"
     pagecolor="#ffffff"
     bordercolor="#666666"
     borderopacity="1.0"
     inkscape:pageopacity="0.0"
     inkscape:pageshadow="2"
     inkscape:zoom="0.35"
     inkscape:cx="264.14115"
     inkscape:cy="856.18597"
     inkscape:document-units="mm"
     inkscape:current-layer="svg8"
     showgrid="false"
     inkscape:window-width="1920"
     inkscape:window-height="1001"
     inkscape:window-x="-9"
     inkscape:window-y="-9"
     inkscape:window-maximized="1" />
  <metadata
     id="metadata5">
    <rdf:RDF>
      <cc:Work
         rdf:about="">
        <dc:format>image/svg+xml</dc:format>
        <dc:type
           rdf:resource="http://purl.org/dc/dcmitype/StillImage" />
        <dc:title></dc:title>
      </cc:Work>
    </rdf:RDF>
  </metadata>
  <g
     inkscape:label="Ebene 1"
     inkscape:groupmode="layer"
     id="layer1">
    <g
       id="g3736"
       transform="matrix(0.35208921,0,0,0.35208921,13.430663,109.65846)">
      <path
         id="path3713"
         d="m 262.10156,417.21484 c -2.53906,-0.17968 -5.1289,-0.42968 -7.69922,-0.74609 -41.95703,-5.15234 -59.20312,-38.00781 -59.90625,-39.37891 -1.90234,-3.77734 -6.72656,-5.25 -10.41406,-3.16406 -0.62891,0.35938 -63.70703,35.30859 -107.624999,-7.19531 -17.25,-16.69531 -25.710937,-41.64063 -25.210937,-74.25391 14.800781,4.76172 31.835937,7.30469 49.496096,7.30469 8.28125,0 16.70703,-0.55469 25.09375,-1.70703 22.07812,-3.02735 42.23828,-15.08985 55.3164,-33.08594 12.9336,-17.80078 17.9336,-39.42187 14.07813,-60.87109 -0.125,-0.69141 -0.25781,-1.38282 -0.39844,-2.07813 -0.004,0 -0.004,0 -0.004,0 -4.71093,-22.83203 -19.54296,-41.77344 -40.69531,-51.96875 -21.58984,-10.40625 -46.22656,-10.16015 -67.597654,0.67188 -12.167968,6.16797 -23.152344,12.41406 -32.886718,18.6914 C 49.445312,148.42969 49.441406,121.81641 65.972656,98.851562 78.90625,80.886719 97.261719,70.75 120.53516,68.722656 c 17.91406,-1.558594 32.17968,2.480469 32.30468,2.519532 3.60157,1.054687 7.4336,-0.71875 8.96875,-4.140626 0.20313,-0.449218 20.65625,-44.90625 63.8125,-51.671874 4.09766,-0.640626 6.89844,-4.484376 6.25782,-8.582032 C 231.23828,2.75 227.39453,-0.0507812 223.29297,0.589844 181.47266,7.144531 158.51562,41.675781 150.92578,55.40625 144.32812,54.136719 133.00391,52.628906 119.80078,53.707031 92.105469,55.972656 69.277344,68.546875 53.78125,90.074219 32.425781,119.73828 34.207031,153.73437 40.304688,178.63281 c -4.195313,3.11328 -8.082032,6.22656 -11.644532,9.33985 C 8.007812,206.00781 -1.5625,223.92969 0.207031,241.23828 1.625,255.09766 8.878906,267.53906 21.1875,277.21484 c 4.453125,3.5 9.570312,6.625 15.214844,9.35938 -1.722656,39.66797 8.21875,70.25 29.605468,90.94922 13.441407,13.00781 29.617188,21.09765 47.789068,24.0664 11.42187,43.85157 25.18359,65.20313 42.01171,65.20313 17.15235,0 25.27735,-24.14063 27.94922,-32.07031 3.20703,-9.53125 6.08985,-21.25 8.61328,-34.96875 10.9375,12.35156 30.29297,27.94921 60.19922,31.625 2.82813,0.34765 5.67969,0.62109 8.47656,0.82031 0.17969,0.0117 0.35938,0.0156 0.53516,0.0156 3.91016,0 7.20703,-3.02343 7.48438,-6.98437 0.29296,-4.13672 -2.82813,-7.72656 -6.96485,-8.01563 z M 15.152344,239.70703 c -2.253906,-22.03125 25.507812,-48.86719 78.175781,-75.5664 8.765625,-4.44141 18.214845,-6.66407 27.671875,-6.66407 9.05859,0 18.12891,2.03907 26.60937,6.125 16.90235,8.14453 28.75,23.26172 32.50782,41.47266 0.11718,0.56641 0.22265,1.13281 0.32812,1.69922 3.125,17.38672 -0.9414,34.92578 -11.44922,49.38672 -10.68359,14.70312 -27.15625,24.55468 -45.19921,27.03125 -36.007818,4.9414 -73.511724,-2.20703 -93.324224,-17.78516 -9.15625,-7.19922 -14.3125,-15.84766 -15.320312,-25.69922 z M 169.51562,429.93359 c -7.14062,21.22266 -13.05468,21.83594 -13.70703,21.83594 -6.01562,0 -16.17968,-13.04297 -26.10937,-48.89844 6.21875,0.0156 12.625,-0.5 19.19531,-1.57422 11.71484,-1.91796 21.91406,-5.24609 29.39844,-8.21093 -2.55469,14.66797 -5.54297,27.24218 -8.77735,36.84765 z m 0,0"
         inkscape:connector-curvature="0" />
      <path
         id="path3715"
         d="m 486.92578,254.85547 c -1.96094,-3.64844 -6.50391,-5.01563 -10.16016,-3.0586 -3.65234,1.95704 -5.02734,6.50782 -3.07812,10.16407 0.10156,0.1875 10.16406,19.26172 12.58203,43.55078 3.13672,31.48047 -7.52734,56.76172 -31.70312,75.15234 -20.32813,15.46485 -43.4961,21.15625 -68.86329,16.91406 -19.35156,-3.23046 -32.83203,-11.3125 -32.95312,-11.38671 -3.34375,-2.04688 -7.72656,-1.14454 -10.03125,2.03125 -0.0352,0.0508 -3.6875,5.04687 -11.30078,10.82421 -6.98438,5.30079 -18.85156,12.38282 -35.73828,16.01954 -4.05469,0.875 -6.63282,4.87109 -5.75782,8.92578 0.75782,3.52343 3.8711,5.93359 7.33594,5.93359 0.52344,0 1.05469,-0.0586 1.58985,-0.17187 22.70312,-4.89454 37.9414,-15.14454 46.74609,-22.90235 11.12891,40.29297 24.45703,59.94141 40.60547,59.94141 14.96875,0 25.83594,-17.39844 34.04687,-54.60547 15.51172,-2.91797 30.16407,-9.48438 43.41407,-19.56641 28.34765,-21.5625 41.3164,-52.3789 37.5039,-89.10937 -2.8125,-27.14063 -13.77344,-47.78906 -14.23828,-48.65625 z M 386.19922,451.76953 c -1.58203,0 -7.35547,-1.30469 -15.23828,-18.09766 -3.42969,-7.30859 -6.73047,-16.41406 -9.85157,-27.17968 5.91797,2.1875 13.21094,4.37109 21.50782,5.80078 7.38281,1.27344 14.67187,1.80078 21.82812,1.58984 -8.96094,37.41797 -17.84375,37.88672 -18.24609,37.88672 z m 0,0"
         inkscape:connector-curvature="0" />
      <path
         id="path3717"
         d="m 508.99219,175.51172 c -6.09766,-23.65625 -21.37891,-41.58594 -44.1836,-51.85156 -9.42578,-4.23828 -18.28515,-6.33203 -24.40234,-7.35938 1.35937,-15.28906 -0.33594,-48.453124 -34.01563,-75.203124 -18.55468,-14.734375 -42.77734,-20.402344 -70.04687,-16.394531 -12.91406,1.894531 -23.60156,5.519531 -29.78516,7.957031 -7.28515,-8.8125 -24.78906,-26.316406 -52.32031,-31.65625 -4.07812,-0.792968 -8.01562,1.871094 -8.80469,5.941406 -0.79297,4.074219 1.8711,8.015626 5.94141,8.804688 30.09766,5.839844 46.30078,30 46.44922,30.222656 2.07031,3.191406 6.20312,4.328125 9.61719,2.648438 0.51953,-0.253906 52.45703,-25.257813 89.60546,4.242187 36.57032,29.042969 27.88672,66.570309 27.50782,68.124999 -1.15235,4.54688 2.28515,9.14063 6.96093,9.35156 2.07813,0.0937 51.05079,2.83985 62.92969,48.92188 4.52344,17.54687 3.09375,34.75 -4.2539,51.13672 -1.56641,3.49218 -0.17578,7.72265 3.15625,9.60937 3.80078,2.15235 8.76562,0.51563 10.55078,-3.46484 8.65234,-19.29297 10.41406,-40.39844 5.09375,-61.03125 z m 0,0"
         inkscape:connector-curvature="0" />
      <path
         id="path3719"
         d="m 114.72266,228.63672 c 8.52343,0 15.19921,-8.28906 15.19921,-18.8711 0,-10.57812 -6.67578,-18.86718 -15.19921,-18.86718 -8.52344,0 -15.199222,8.28906 -15.199222,18.86718 0,10.58204 6.675782,18.8711 15.199222,18.8711 z m 0,0"
         inkscape:connector-curvature="0" />
      <path
         id="path3721"
         d="m 184.51562,89.199219 c -11.14843,-0.601563 -19.86328,2.480469 -25.91796,9.140625 -10.25391,11.285156 -8.08594,28.003906 -7.80469,29.874996 0.38281,2.54688 2.04687,4.72266 4.40625,5.75782 l 34.33594,15.09765 c 1.66406,0.73047 3.57031,0.83203 5.30468,0.28125 13.58203,-4.33203 22.03516,-18.42578 20.09766,-33.51953 -1.96094,-15.29687 -13.90234,-25.749999 -30.42188,-26.632811 z m 8.125,44.828121 -27.1875,-11.95703 c 0.0664,-4.17578 0.94532,-10.00781 4.30079,-13.66797 2.91015,-3.17578 7.47656,-4.55859 13.96093,-4.20312 13.25391,0.70703 15.83203,9.70703 16.32422,13.54297 0.76953,6.01562 -1.57031,13.08984 -7.39844,16.28515 z m 0,0"
         inkscape:connector-curvature="0" />
    </g>
  </g>
  <g
     id="g5130"
     transform="matrix(0.26458333,0,0,0.26458333,43.89399,8.5127187)">
    <g
       id="g4992">
	<g
   id="g4990">
		<path
   id="path4988"
   d="m 436.551,34.105 c -2.936,-3.008 -7.754,-3.07 -10.761,-0.136 l -50.928,49.663 6.202,-30.905 c 0.826,-4.119 -1.843,-8.131 -5.964,-8.958 -4.116,-0.822 -8.132,1.843 -8.958,5.964 l -10.581,52.719 -21.826,21.284 6.059,-30.191 c 0.827,-4.119 -1.843,-8.131 -5.964,-8.958 -4.119,-0.825 -8.132,1.843 -8.958,5.964 l -10.437,52.006 -39.577,38.592 c -3.009,2.934 -3.069,7.752 -0.136,10.761 1.492,1.528 3.469,2.296 5.45,2.296 1.916,0 3.832,-0.718 5.312,-2.161 l 37.172,-36.248 55.814,-0.953 c 4.203,-0.072 7.55,-3.536 7.479,-7.739 -0.071,-4.159 -3.464,-7.48 -7.606,-7.48 -0.045,0 -0.089,0 -0.133,0.001 l -39.666,0.677 25.98,-25.334 55.215,-0.944 c 4.203,-0.072 7.55,-3.536 7.479,-7.739 -0.071,-4.159 -3.464,-7.48 -7.606,-7.48 -0.045,0 -0.089,0 -0.133,0.001 l -39.067,0.668 56.003,-54.611 c 3.01,-2.934 3.07,-7.751 0.136,-10.759 z"
   inkscape:connector-curvature="0" />

	</g>

</g>
    <g
       id="g4998">
	<g
   id="g4996">
		<path
   id="path4994"
   d="m 126.342,143.504 c -2.437,-2.767 -4.805,-5.642 -7.039,-8.546 -2.561,-3.33 -7.338,-3.956 -10.672,-1.393 -3.331,2.562 -3.955,7.34 -1.393,10.672 2.438,3.171 5.023,6.31 7.683,9.328 1.505,1.707 7.15,4.367 10.742,0.68 2.932,-3.011 3.457,-7.588 0.679,-10.741 z"
   inkscape:connector-curvature="0" />

	</g>

</g>
    <g
       id="g5004">
	<g
   id="g5002">
		<path
   id="path5000"
   d="m 292.81,391.259 c -13.704,0 -24.852,11.149 -24.852,24.852 0,13.704 11.149,24.852 24.852,24.852 13.704,0 24.852,-11.149 24.852,-24.852 0.001,-13.703 -11.148,-24.852 -24.852,-24.852 z m 0,34.486 c -5.312,0 -9.633,-4.321 -9.633,-9.633 0,-5.312 4.321,-9.633 9.633,-9.633 5.312,0 9.633,4.321 9.633,9.633 0,5.311 -4.321,9.633 -9.633,9.633 z"
   inkscape:connector-curvature="0" />

	</g>

</g>
    <g
       id="g5010">
	<g
   id="g5008">
		<path
   id="path5006"
   d="m 362.338,431.864 c -4.204,0 -7.61,3.406 -7.61,7.61 0,4.204 3.406,7.61 7.61,7.61 5.312,0 9.634,4.321 9.634,9.633 0,5.312 -4.322,9.634 -9.634,9.634 -5.312,0 -9.633,-4.322 -9.633,-9.634 0,-4.204 -3.406,-7.61 -7.61,-7.61 -4.204,0 -7.61,3.406 -7.61,7.61 0,13.705 11.149,24.853 24.852,24.853 13.705,0 24.853,-11.149 24.853,-24.853 10e-4,-13.704 -11.148,-24.853 -24.852,-24.853 z"
   inkscape:connector-curvature="0" />

	</g>

</g>
    <g
       id="g5016">
	<g
   id="g5014">
		<path
   id="path5012"
   d="m 379.581,290.544 c -13.703,0 -24.852,11.149 -24.852,24.853 0,13.704 11.149,24.852 24.852,24.852 13.704,0 24.852,-11.149 24.852,-24.852 0,-13.705 -11.148,-24.853 -24.852,-24.853 z m 10e-4,34.486 c -5.312,0 -9.633,-4.321 -9.633,-9.633 0,-5.312 4.321,-9.634 9.633,-9.634 5.312,0 9.633,4.321 9.633,9.634 0,5.311 -4.321,9.633 -9.633,9.633 z"
   inkscape:connector-curvature="0" />

	</g>

</g>
    <g
       id="g5022">
	<g
   id="g5020">
		<path
   id="path5018"
   d="m 115.778,284.456 c -13.704,0 -24.852,11.149 -24.852,24.853 0,13.704 11.149,24.852 24.852,24.852 4.204,0 7.61,-3.406 7.61,-7.61 0,-4.204 -3.406,-7.61 -7.61,-7.61 -5.312,0 -9.633,-4.321 -9.633,-9.633 0,-5.312 4.321,-9.634 9.633,-9.634 5.312,0 9.633,4.322 9.633,9.634 0,4.204 3.406,7.61 7.61,7.61 4.204,0 7.61,-3.406 7.61,-7.61 -0.001,-13.704 -11.149,-24.852 -24.853,-24.852 z"
   inkscape:connector-curvature="0" />

	</g>

</g>
    <g
       id="g5028">
	<g
   id="g5026">
		<path
   id="path5024"
   d="m 443.45,397.934 c -5.741,0 -11.396,1.032 -16.711,3.021 -20.826,-51.512 -76.986,-47.893 -78.993,-47.741 -13.75,-27.283 -38.771,-46.738 -67.887,-53.694 0.802,-25.649 3.14,-50.553 7.004,-74.153 17.73,-1.7 52.138,-7.732 87.564,-28.975 25.403,-15.234 46.525,-35.487 62.776,-60.195 C 456.727,106.51 469.104,70.451 473.99,29.025 474.897,21.349 472.368,13.728 467.052,8.116 461.745,2.512 454.247,-0.426 446.548,0.052 444.593,0.177 398.132,3.389 350.887,28.848 318.07,46.531 290.48,75.72 270.891,112.885 266.947,104.806 262.57,97.076 257.79,89.809 241.537,65.099 220.415,44.847 195.013,29.614 146.19,0.337 98.487,0 96.481,0 93.11,0 84.157,0 76.451,7.71 c -5.058,5.06 -7.825,12.064 -7.589,19.213 1.12,34.354 8.917,65.355 23.176,92.141 1.973,3.708 6.579,5.117 10.293,3.141 3.709,-1.974 5.116,-6.583 3.141,-10.293 -13.157,-24.715 -20.357,-53.476 -21.4,-85.487 -0.097,-2.961 1.048,-5.861 3.143,-7.957 3.247,-3.249 7.015,-3.249 9.267,-3.249 1.835,0 45.453,0.313 90.705,27.448 23.427,14.047 42.902,32.722 57.888,55.504 6.6,10.035 12.399,21.027 17.244,32.673 -2.583,6.006 -4.981,12.176 -7.165,18.512 -1.501,4.419 -3.194,9.773 -4.97,16.022 L 226.782,142.557 216.345,90.551 c -0.826,-4.121 -4.836,-6.789 -8.958,-5.964 -4.121,0.827 -6.79,4.839 -5.964,8.958 l 6.059,30.191 -21.827,-21.284 -10.58,-52.719 c -0.826,-4.121 -4.838,-6.787 -8.958,-5.964 -4.121,0.828 -6.79,4.838 -5.964,8.958 l 6.202,30.906 -50.93,-49.665 c -3.011,-2.934 -7.826,-2.872 -10.761,0.136 -2.934,3.009 -2.873,7.827 0.136,10.76 l 56.003,54.611 -39.067,-0.668 c -4.199,-0.115 -7.667,3.276 -7.739,7.479 -0.071,4.203 3.276,7.667 7.479,7.739 l 55.215,0.944 25.979,25.334 -39.665,-0.677 c -4.164,-0.093 -7.667,3.276 -7.739,7.479 -0.071,4.203 3.276,7.667 7.479,7.739 l 55.813,0.953 27.208,26.531 c -1.733,7.261 -3.46,15.298 -5.092,24.13 -16.494,-3.639 -39.117,-10.378 -61.981,-22.697 -11.534,-6.215 -22.269,-13.422 -31.906,-21.421 -3.234,-2.685 -8.032,-2.24 -10.716,0.994 -2.685,3.234 -2.239,8.031 0.994,10.715 10.411,8.643 21.988,16.418 34.407,23.109 24.703,13.312 49.077,20.492 66.65,24.32 -3.433,22.108 -6.101,48.257 -6.929,78.259 -28.712,7.148 -53.338,26.486 -66.939,53.475 -2.008,-0.152 -55.376,-5.896 -78.993,47.741 -5.314,-1.989 -10.97,-3.021 -16.711,-3.021 -26.278,0 -47.658,21.379 -47.658,47.658 0,26.279 21.379,47.658 47.658,47.658 10.451,0 20.553,-3.454 28.773,-9.677 15.034,17.943 37.227,28.428 60.924,28.428 19.743,0 38.316,-7.12 52.893,-20.161 13.919,6.758 29.313,10.31 44.858,10.31 15.545,0 30.939,-3.551 44.858,-10.31 14.577,13.042 33.151,20.161 52.894,20.161 23.697,0 45.891,-10.485 60.924,-28.428 8.221,6.223 18.323,9.677 28.773,9.677 26.278,0 47.658,-21.379 47.658,-47.658 0,-26.279 -21.377,-47.656 -47.655,-47.656 z M 269.553,154.283 c 17.563,-50.942 49.012,-90.731 88.554,-112.038 44.347,-23.898 87.589,-26.89 89.395,-27.004 3.21,-0.195 6.303,1.02 8.501,3.34 2.202,2.325 3.249,5.48 2.873,8.661 -4.606,39.056 -16.176,72.901 -34.39,100.593 -14.985,22.782 -34.461,41.457 -57.888,55.505 -38.207,22.91 -76.005,26.69 -86.681,27.302 -3.525,0.202 -6.447,2.802 -7.059,6.279 -4.471,25.426 -7.192,52.37 -8.146,80.164 -2.882,-0.245 -5.785,-0.385 -8.714,-0.385 -3.197,0 -6.368,0.163 -9.51,0.455 2.417,-74.6 16.836,-124.53 23.065,-142.872 z M 443.45,478.03 c -9.204,0 -18.011,-3.938 -24.162,-10.803 -1.573,-1.754 -3.873,-2.678 -6.211,-2.512 -2.347,0.167 -4.485,1.412 -5.789,3.37 -11.974,17.969 -31.986,28.696 -53.535,28.696 -17.51,0 -33.884,-6.929 -46.107,-19.51 -1.471,-1.515 -3.454,-2.307 -5.462,-2.307 -1.263,0 -2.537,0.315 -3.699,0.961 -12.933,7.201 -27.624,11.007 -42.483,11.007 -14.859,0 -29.55,-3.806 -42.483,-11.007 -3.009,-1.675 -6.763,-1.121 -9.16,1.346 -12.222,12.581 -28.597,19.51 -46.107,19.51 -21.548,0 -41.561,-10.727 -53.535,-28.696 -1.305,-1.958 -3.443,-3.202 -5.789,-3.37 -2.333,-0.164 -4.639,0.759 -6.211,2.512 -6.152,6.866 -14.959,10.803 -24.162,10.803 -17.887,0 -32.439,-14.552 -32.439,-32.439 0,-17.887 14.552,-32.439 32.439,-32.439 6.002,0 11.863,1.653 16.951,4.78 2.008,1.235 4.471,1.466 6.676,0.635 2.203,-0.833 3.897,-2.641 4.586,-4.894 8.313,-27.198 33.022,-45.471 61.484,-45.471 3.135,0 6.32,0.234 9.464,0.699 3.394,0.496 6.709,-1.333 8.084,-4.481 13.941,-31.895 45.424,-52.503 80.203,-52.503 34.779,0 66.262,20.609 80.203,52.503 1.374,3.146 4.685,4.979 8.084,4.481 3.145,-0.465 6.329,-0.699 9.464,-0.699 28.462,0 53.171,18.273 61.484,45.471 0.689,2.253 2.383,4.061 4.586,4.894 2.206,0.832 4.669,0.6 6.676,-0.635 5.088,-3.127 10.95,-4.78 16.951,-4.78 17.887,0 32.439,14.552 32.439,32.439 0,17.887 -14.553,32.439 -32.44,32.439 z"
   inkscape:connector-curvature="0" />

	</g>

</g>
    <g
       id="g5034">
	<g
   id="g5032">
		<circle
   id="circle5030"
   r="6.6350002"
   cy="397.71301"
   cx="350.71701" />

	</g>

</g>
    <g
       id="g5040">
	<g
   id="g5038">
		<circle
   id="circle5036"
   r="6.6350002"
   cy="353.953"
   cx="417.31699" />

	</g>

</g>
    <g
       id="g5046">
	<g
   id="g5044">
		<circle
   id="circle5042"
   r="6.6350002"
   cy="347.31699"
   cx="86.133003" />

	</g>

</g>
    <g
       id="g5048">
</g>
    <g
       id="g5050">
</g>
    <g
       id="g5052">
</g>
    <g
       id="g5054">
</g>
    <g
       id="g5056">
</g>
    <g
       id="g5058">
</g>
    <g
       id="g5060">
</g>
    <g
       id="g5062">
</g>
    <g
       id="g5064">
</g>
    <g
       id="g5066">
</g>
    <g
       id="g5068">
</g>
    <g
       id="g5070">
</g>
    <g
       id="g5072">
</g>
    <g
       id="g5074">
</g>
    <g
       id="g5076">
</g>
  </g>
</svg>
