<?xml version="1.0" encoding="UTF-8" standalone="no"?>
<!-- Created with Inkscape (http://www.inkscape.org/) -->

<svg
   xmlns:dc="http://purl.org/dc/elements/1.1/"
   xmlns:cc="http://creativecommons.org/ns#"
   xmlns:rdf="http://www.w3.org/1999/02/22-rdf-syntax-ns#"
   xmlns:svg="http://www.w3.org/2000/svg"
   xmlns="http://www.w3.org/2000/svg"
   xmlns:sodipodi="http://sodipodi.sourceforge.net/DTD/sodipodi-0.dtd"
   xmlns:inkscape="http://www.inkscape.org/namespaces/inkscape"
   width="64px"
   height="44px"
   viewBox="0 0 210 297"
   version="1.1"
   id="svg8"
   inkscape:version="0.92.4 (5da689c313, 2019-01-14)"
   sodipodi:docname="sprout_sheep.svg">
  <defs
     id="defs2" />
  <sodipodi:namedview
     id="base"
     pagecolor="#ffffff"
     bordercolor="#666666"
     borderopacity="1.0"
     inkscape:pageopacity="0.0"
     inkscape:pageshadow="2"
     inkscape:zoom="0.35"
     inkscape:cx="400"
     inkscape:cy="560"
     inkscape:document-units="mm"
     inkscape:current-layer="layer1"
     showgrid="false"
     inkscape:window-width="1920"
     inkscape:window-height="1001"
     inkscape:window-x="-9"
     inkscape:window-y="-9"
     inkscape:window-maximized="1" />
  <metadata
     id="metadata5">
    <rdf:RDF>
      <cc:Work
         rdf:about="">
        <dc:format>image/svg+xml</dc:format>
        <dc:type
           rdf:resource="http://purl.org/dc/dcmitype/StillImage" />
        <dc:title></dc:title>
      </cc:Work>
    </rdf:RDF>
  </metadata>
  <g
     inkscape:label="Ebene 1"
     inkscape:groupmode="layer"
     id="layer1">
    <g
       transform="matrix(0.3906239,0,0,0.36333314,5.571651,96.596194)"
       id="g4029">
      <path
         style="fill:#ffcb9d"
         inkscape:connector-curvature="0"
         d="m 352.62109,398.35937 c 7.08985,29.23829 19.83985,68.11329 37.48828,68.11329 13.76172,0 22.875,-27.27735 28.60547,-55.28907 -33.21093,4.37891 -60.59765,-9.73828 -66.09375,-12.82422 z m 0,0"
         id="path3743" />
      <path
         style="fill:#ffcb9d"
         inkscape:connector-curvature="0"
         d="m 185.71094,385.27734 c 0,0 -33.09766,18.74219 -70.00391,14.82032 7.17188,29.01562 19.76563,66.375 37.0625,66.375 18.07422,0 28.13281,-47.04297 33.03906,-81.00782 -0.0586,-0.10937 -0.0977,-0.1875 -0.0977,-0.1875 z m 0,0"
         id="path3745" />
      <path
         style="fill:#ffe9c8"
         inkscape:connector-curvature="0"
         d="m 53.941406,209.43359 c 0,0 -37.3125,-66.94922 0,-118.781246 35.703125,-49.597656 97.949214,-31.347656 97.949214,-31.347656 0,0 22.25782,-49.980469 71.59766,-57.710938 53.92188,-8.453125 82.07031,34.894531 82.07031,34.894531 0,0 57.98828,-28.539062 100.53516,5.25 42.32812,33.609375 31.02734,78.140629 31.02734,78.140629 0,0 58.10938,2.35547 71.99219,56.19921 12.98828,50.38672 -22.05469,83.46485 -22.05469,83.46485 0,0 44.05078,81.98047 -21.83203,132.09765 -55.15234,41.95313 -113.61328,6.13672 -113.61328,6.13672 0,0 -28.89062,40.78516 -98.22266,32.26953 -48.13671,-5.91406 -67.67968,-44.76953 -67.67968,-44.76953 0,0 -70.14453,39.72657 -120.066409,-8.58984 C 9.625,322.47656 53.941406,209.43359 53.941406,209.43359 Z m 0,0"
         id="path3747" />
      <path
         style="fill:#ffba7e"
         inkscape:connector-curvature="0"
         d="m 185.80859,385.46484 c -0.0586,-0.10937 -0.10156,-0.1875 -0.10156,-0.1875 0,0 -33.09375,18.74219 -70,14.82032 2.25,9.10937 5.03516,19.03515 8.33203,28.37109 24.7461,0.48828 46.65625,-8.15234 56.36328,-12.67578 2.25,-10.25391 4.03125,-20.80469 5.40625,-30.32813 z m 0,0"
         id="path3749" />
      <path
         style="fill:#ffba7e"
         inkscape:connector-curvature="0"
         d="m 352.62109,398.35937 c 2.50782,10.33985 5.72657,21.875 9.61328,32.47657 10.63672,4.46093 28.36329,9.99609 48.97266,8.89453 2.97266,-8.61719 5.45703,-18.53125 7.50781,-28.54688 -33.21093,4.37891 -60.59765,-9.73828 -66.09375,-12.82422 z m 0,0"
         id="path3751" />
      <path
         style="fill:#ffdca7"
         inkscape:connector-curvature="0"
         d="m 437.12109,92.023438 c 0,0 0.0508,0.0039 0.125,0.0078 -0.0195,-0.09766 -0.0391,-0.199219 -0.0547,-0.296875 -0.043,0.191406 -0.0703,0.289063 -0.0703,0.289063 z m 0,0"
         id="path3753" />
      <path
         style="fill:#ffdca7"
         inkscape:connector-curvature="0"
         d="m 465.22266,363.78516 c -55.15235,41.95703 -113.61329,6.13671 -113.61329,6.13671 0,0 -28.89062,40.78516 -98.21875,32.26954 -48.14062,-5.91016 -67.68359,-44.76954 -67.68359,-44.76954 0,0 -70.14062,39.72657 -120.062499,-8.58593 -18.292969,-17.70313 -25.882812,-41.67969 -27.816406,-65.94532 -2.335937,32.69922 2.46875,69.27344 27.816406,93.80079 49.921879,48.3125 120.062499,8.58593 120.062499,8.58593 0,0 19.54297,38.85938 67.68359,44.76953 69.32813,8.51563 98.21875,-32.26953 98.21875,-32.26953 0,0 58.46094,35.82032 113.61329,-6.13672 33.91796,-25.79687 38.69921,-60.03515 35.35546,-87.1914 -2.74609,20.42969 -12.33593,41.82812 -35.35546,59.33594 z m 0,0"
         id="path3755" />
      <path
         style="fill:#ffcb9d"
         inkscape:connector-curvature="0"
         d="M 185.38672,203.03516 C 176.09766,158.00391 125.91406,134.74219 84.902344,155.53125 46.621094,174.9375 -3.3125,207.01953 0.171875,241.06641 c 4.257813,41.59765 66.175781,59.14453 120.671875,51.67187 42.48437,-5.82812 72.50391,-45.55078 64.92187,-87.75781 -0.11718,-0.64844 -0.24218,-1.29688 -0.3789,-1.94531 z m 0,0"
         id="path3757" />
      <path
         style="fill:#ffba7e"
         inkscape:connector-curvature="0"
         d="m 185.60156,204.14844 c -5.99219,30.94531 -31.57031,56.17968 -64.75781,60.73047 -49.554688,6.80078 -105.242188,-7.09766 -118.132812,-40.95313 -2.175782,5.6211 -3.128907,11.35156 -2.539063,17.14063 4.257813,41.59765 66.175781,59.14453 120.671875,51.67187 42.48437,-5.82812 72.50391,-45.55078 64.92187,-87.75781 -0.0508,-0.27734 -0.10937,-0.55469 -0.16406,-0.83203 z m 0,0"
         id="path3759" />
      <path
         style="fill:#433f43"
         inkscape:connector-curvature="0"
         d="m 110.44531,189.99609 c -8.78125,0 -15.660154,8.53907 -15.660154,19.4375 0,10.89844 6.878904,19.4375 15.660154,19.4375 8.78125,0 15.65625,-8.53906 15.65625,-19.4375 0,-10.89843 -6.8789,-19.4375 -15.65625,-19.4375 z m 0,0"
         id="path3761" />
      <path
         style="fill:#ffcb9d"
         inkscape:connector-curvature="0"
         d="m 155.25391,124.26953 c 0,0 -4.96094,-33.003905 26.67578,-31.312499 30.89453,1.652344 30.63672,39.871089 8.69531,46.867189 z m 0,0"
         id="path3763" />
      <g
         id="g3967"
         transform="matrix(0.58084837,0,0,0.51489734,117.16354,-180.31667)">
        <path
           id="path3852"
           d="m 282.915,211.33 c -3.863,4.077 -9.324,6.225 -14.941,5.877 -1.943,-0.123 -48.129,-3.298 -95.369,-28.754 C 127.964,164.397 74.094,115.585 70.966,19.649 70.794,14.417 72.797,9.349 76.497,5.647 82.141,0 88.765,0 91.594,0 c 0.001,0 0.001,0 0.001,0 2.001,0 49.045,0.338 97.518,29.403 25.163,15.089 46.083,35.148 62.181,59.622 19.446,29.566 31.786,65.589 36.678,107.066 0.658,5.58 -1.195,11.161 -5.057,15.239 z"
           style="fill:#6dc82a"
           inkscape:connector-curvature="0" />
        <path
           id="path3854"
           d="m 251.887,89.963 c -7.938,14.65 -14.633,31.15 -19.437,49.738 -4.32,12.902 -10.917,35.57 -16.362,66.933 28.719,8.988 50.563,10.49 51.886,10.573 5.618,0.349 11.078,-1.799 14.941,-5.877 3.862,-4.078 5.715,-9.659 5.056,-15.237 -4.841,-41.045 -16.988,-76.739 -36.084,-106.13 z"
           style="fill:#5eac24"
           inkscape:connector-curvature="0" />
        <path
           id="path3856"
           d="M 266.674,178.855 225.886,139.08 215.13,85.482 c -0.851,-4.248 -4.984,-6.997 -9.233,-6.147 -4.248,0.852 -6.998,4.987 -6.147,9.233 l 6.245,31.116 L 183.5,97.748 172.596,43.413 c -0.851,-4.248 -4.986,-6.994 -9.233,-6.147 -4.248,0.852 -6.998,4.986 -6.147,9.233 l 6.392,31.852 -52.492,-51.184 c -3.104,-3.024 -8.066,-2.96 -11.091,0.14 -3.024,3.102 -2.961,8.067 0.14,11.09 l 57.719,56.284 -40.264,-0.688 c -4.327,-0.118 -7.901,3.377 -7.976,7.708 -0.073,4.331 3.377,7.901 7.708,7.976 l 56.907,0.973 26.775,26.11 -40.88,-0.697 c -4.292,-0.096 -7.901,3.377 -7.976,7.708 -0.073,4.331 3.377,7.901 7.708,7.976 l 57.522,0.982 38.311,37.358 c 1.526,1.487 3.501,2.227 5.474,2.227 2.04,0 4.078,-0.792 5.617,-2.368 3.027,-3.103 2.965,-8.068 -0.136,-11.091 z"
           style="fill:#4e901e"
           inkscape:connector-curvature="0" />
        <path
           id="path3858"
           d="M 467.824,5.914 C 463.961,1.837 458.5,-0.311 452.883,0.037 450.94,0.16 404.754,3.335 357.514,28.791 321.213,48.352 278.813,84.284 262.553,148.61 c -8.881,26.153 -28.446,97.078 -23.87,203.868 0.396,9.239 8.01,16.463 17.17,16.462 0.248,0 0.498,-0.005 0.749,-0.016 9.489,-0.407 16.852,-8.428 16.446,-17.919 -2.371,-55.323 2.184,-100.55 8.054,-133.923 13.209,-0.757 52.566,-5.045 92.92,-29.241 25.163,-15.089 46.083,-35.148 62.181,-59.622 19.446,-29.566 31.786,-65.589 36.678,-107.066 0.658,-5.58 -1.195,-11.161 -5.057,-15.239 z"
           style="fill:#91dc5a"
           inkscape:connector-curvature="0" />
        <path
           id="path3860"
           d="m 443.129,27.307 c -3.026,-3.101 -7.991,-3.164 -11.091,-0.14 L 379.55,78.35 385.942,46.499 c 0.851,-4.247 -1.899,-8.38 -6.147,-9.233 -4.242,-0.848 -8.381,1.899 -9.233,6.147 l -10.905,54.335 -22.494,21.936 6.245,-31.116 c 0.852,-4.247 -1.899,-8.38 -6.147,-9.233 -4.246,-0.85 -8.381,1.899 -9.233,6.147 l -10.757,53.599 -40.789,39.775 c -3.102,3.024 -3.163,7.989 -0.14,11.09 1.538,1.576 3.575,2.367 5.617,2.367 1.974,0 3.95,-0.74 5.474,-2.227 l 38.311,-37.358 57.524,-0.982 c 4.331,-0.074 7.781,-3.644 7.708,-7.976 -0.073,-4.286 -3.57,-7.709 -7.839,-7.709 -0.046,0 -0.092,0 -0.137,0.001 l -40.881,0.697 26.775,-26.11 56.907,-0.973 c 4.331,-0.074 7.781,-3.644 7.708,-7.976 -0.073,-4.286 -3.57,-7.709 -7.839,-7.709 -0.046,0 -0.092,0 -0.137,0.001 l -40.264,0.688 57.719,-56.284 c 3.103,-3.023 3.165,-7.988 0.141,-11.089 z"
           style="fill:#5eac24"
           inkscape:connector-curvature="0" />
        <path
           id="path3862"
           d="m 449.193,410.125 c -7.91,0 -15.298,2.228 -21.577,6.087 -9.274,-30.342 -37.491,-52.414 -70.869,-52.414 -3.704,0 -7.341,0.28 -10.898,0.805 -15.13,-34.614 -49.655,-58.813 -89.846,-58.813 -40.191,0 -74.716,24.199 -89.846,58.813 -3.558,-0.525 -7.196,-0.805 -10.898,-0.805 -33.378,0 -61.594,22.072 -70.869,52.414 -6.279,-3.859 -13.666,-6.087 -21.577,-6.087 -22.795,0 -41.275,18.48 -41.275,41.275 0,22.795 18.48,41.275 41.275,41.275 12.216,0 23.188,-5.31 30.744,-13.744 13.282,19.931 35.954,33.07 61.701,33.07 20.851,0 39.68,-8.625 53.144,-22.487 14.097,7.848 30.321,12.334 47.601,12.334 17.279,0 33.504,-4.487 47.601,-12.334 13.466,13.862 32.293,22.487 53.144,22.487 25.747,0 48.42,-13.137 61.701,-33.07 7.557,8.434 18.529,13.744 30.744,13.744 22.795,0 41.275,-18.48 41.275,-41.275 0,-22.796 -18.48,-41.275 -41.275,-41.275 z"
           style="fill:#cc7400"
           inkscape:connector-curvature="0" />
        <g
           id="g3878">
          <path
             id="path3864"
             d="m 309.888,345.918 c 9.748,0 19.154,1.443 28.042,4.092 -17.525,-26.63 -47.666,-44.221 -81.928,-44.221 -40.192,0 -74.716,24.199 -89.846,58.813 -3.558,-0.525 -7.196,-0.805 -10.898,-0.805 -33.378,0 -61.594,22.072 -70.869,52.414 -6.279,-3.859 -13.666,-6.087 -21.577,-6.087 -22.795,0 -41.275,18.48 -41.275,41.275 0,22.795 18.48,41.275 41.275,41.275 12.216,0 23.188,-5.31 30.744,-13.744 13.282,19.931 35.954,33.07 61.701,33.07 20.851,0 39.68,-8.625 53.144,-22.487 6.148,3.423 12.7,6.204 19.567,8.255 -10.172,-15.451 -16.108,-33.939 -16.108,-53.821 0,-54.139 43.889,-98.029 98.028,-98.029 z"
             style="fill:#aa6100"
             inkscape:connector-curvature="0" />
          <circle
             id="circle3866"
             r="17.771"
             cy="421.01401"
             cx="294.98599"
             style="fill:#aa6100" />
          <circle
             id="circle3868"
             r="17.771"
             cy="462.86301"
             cx="366.638"
             style="fill:#aa6100" />
          <circle
             id="circle3870"
             r="6.8379998"
             cy="402.05499"
             cx="355.70999"
             style="fill:#aa6100" />
          <circle
             id="circle3872"
             r="6.8379998"
             cy="469.702"
             cx="256.00201"
             style="fill:#aa6100" />
          <circle
             id="circle3874"
             r="6.8379998"
             cy="376.49799"
             cx="277.20901"
             style="fill:#aa6100" />
          <circle
             id="circle3876"
             r="6.8379998"
             cy="438.79099"
             cx="424.35101"
             style="fill:#aa6100" />
        </g>
        <g
           id="g3886">
          <circle
             id="circle3880"
             r="17.771"
             cy="317.216"
             cx="384.41501"
             style="fill:#cc7400" />
          <circle
             id="circle3882"
             r="6.8379998"
             cy="356.953"
             cx="424.35101"
             style="fill:#cc7400" />
          <circle
             id="circle3884"
             r="6.8379998"
             cy="324.05499"
             cx="424.35101"
             style="fill:#cc7400" />
        </g>
        <g
           id="g3892">
          <circle
             id="circle3888"
             r="17.771"
             cy="310.94199"
             cx="112.53"
             style="fill:#aa6100" />
          <circle
             id="circle3890"
             r="6.8379998"
             cy="350.11499"
             cx="83.019997"
             style="fill:#aa6100" />
        </g>
        <g
           id="g3894" />
        <g
           id="g3896" />
        <g
           id="g3898" />
        <g
           id="g3900" />
        <g
           id="g3902" />
        <g
           id="g3904" />
        <g
           id="g3906" />
        <g
           id="g3908" />
        <g
           id="g3910" />
        <g
           id="g3912" />
        <g
           id="g3914" />
        <g
           id="g3916" />
        <g
           id="g3918" />
        <g
           id="g3920" />
        <g
           id="g3922" />
      </g>
    </g>
  </g>
</svg>
